<?xml version="1.0" encoding="UTF-8"?>
<svg width="33" height="50" fill="none" version="1.1" viewBox="0 0 33 50" xmlns="http://www.w3.org/2000/svg" xmlns:xlink="http://www.w3.org/1999/xlink">
 <g>
  <g stroke="#ffa5ba" stroke-width="3">
   <path d="m1.5 22h30l-5 26.5h-20z" stroke-linejoin="round"/>
   <g stroke-linecap="round">
    <path d="m31.423 22.825a15.5 17 0 0 1-14.959 12.655 15.5 17 0 0 1-14.998-12.6"/>
    <path d="m5.9437 6.1698c-0.7316-1.2522-1.2402-2.6199-1.4921-4.0481"/>
    <path d="m14 11.982c-1.6932-0.356-3.2967-1.0667-4.6954-2.0851"/>
    <path d="m23.626 9.9608c-1.3851 0.98844-2.9555 1.6824-4.6215 2.0282"/>
    <path d="m27.046 6.2527a12.25 12.25 0 0 1-0.01525 0.025587"/>
    <path d="m28.579 2.1217c-0.25715 1.4584-0.79184 2.8836-1.5484 4.1566"/>
    <path d="m14 11.982v3.0176a2.5 2.5 0 0 0 1.25 2.166 2.5 2.5 0 0 0 2.5 0 2.5 2.5 0 0 0 1.25-2.166v-3.0117"/>
    <path d="m5.9437 6.1698-1.4933 1.6065a2.5 2.5 0 0 0-0.55916 2.4375 2.5 2.5 0 0 0 1.8311 1.7021 2.5 2.5 0 0 0 2.3902-0.73542l1.1975-1.2883"/>
    <path d="m23.626 9.9608 1.2026 1.309c0.60423 0.65822 1.5138 0.94392 2.3859 0.74942 0.87174-0.19443 1.5735-0.83916 1.841-1.6913 0.26759-0.85249 0.05987-1.783-0.54486-2.4407l-1.4797-1.6089"/>
    <path d="m4.4516 2.1217 0.54837-0.62169h23l0.57942 0.62169" stroke-linejoin="round"/>
   </g>
  </g>
 </g>
</svg>
