<?xml version="1.0" encoding="UTF-8"?>
<svg width="50" height="50" fill="none" version="1.1" viewBox="0 0 50 50" xmlns="http://www.w3.org/2000/svg" xmlns:xlink="http://www.w3.org/1999/xlink">
 <g>
  <g stroke="#ffa5ba" stroke-width="3">
   <path d="m32.253 44.736-0.72504 3.7636h-23.778l-6.25-31v0h36l-3.2491 16.865" fill="none" stroke-linecap="round" stroke-linejoin="round"/>
   <path d="m37.5 17.5a18 15.5 0 0 1-9 13.423 18 15.5 0 0 1-18 0 18 15.5 0 0 1-9-13.423" stroke-linecap="round" stroke-linejoin="round"/>
   <g fill="none">
    <path d="m39.598 36.993c3.1103-3.279 5.0835-2.5776 6.4233-2.014 5.9939 3.675 0.06059 14.055-6.563 12.491-6.0534 2.0564-13.007-7.8568-6.0727-12.792 1.7788-0.99404 4.3227-0.0071 6.2124 2.3146z" stroke-linejoin="round"/>
    <g stroke-linecap="round">
     <path d="m41.987 28.302c-2.4868 3.4242-2.4009 6.0492-2.3884 8.6906"/>
     <path d="m3.2848 17.511c-1.1369-2.7409-0.94744-7.4235 6.5559-7.2703 0.77064-1.9813 1.8082-4.8304 5.6874-4.7251 5.4759 0.25617 6.5202 8.7263 5.3393 11.986" stroke-linejoin="round"/>
     <path d="m7.4165 1.4571c-0.55121 3.7067 0.047381 6.8469 2.4242 8.7832"/>
     <path d="m20.227 9.1516c1.7918-0.72426 4.4047-0.48519 6.2424 1.4549 6.9369-5.9299 10.79 0.75488 8.3332 6.8932" stroke-linejoin="round"/>
     <path d="m28.945 1.4874c-2.0286 2.8096-2.6906 5.8805-2.476 9.1191"/>
    </g>
   </g>
  </g>
 </g>
</svg>
