<?xml version="1.0" encoding="UTF-8"?>
<svg width="44" height="50" fill="none" version="1.1" viewBox="0 0 44 50" xmlns="http://www.w3.org/2000/svg" xmlns:xlink="http://www.w3.org/1999/xlink">
 <g>
  <g stroke="#ffa5ba">
   <path d="m25.25 35v13.5h-6v-13.5" stroke-linecap="round" stroke-linejoin="round" stroke-width="3"/>
   <g>
    <path d="m20 6c0.61546 0.62255 3.2398 0.79223 4 0 1.9255-2.1724 2.9823-4.3438 9.0077-4.4563 5.913 0.14815 9.5817 5.6491 9.5156 10.953-0.064217 8.8255-6.7469 14.645-17.273 22.504-2.0262 0.71878-4.0252 0.6905-6 0-12.142-8.0912-17.533-13.553-17.798-22.531 0.15208-4.7534 3.6773-10.801 9.9996-10.944 5.1888 0.086834 6.766 2.3075 8.5485 4.4753z" stroke-width="3"/>
    <path d="m41.28 18.641c2.84e-4 -1.95e-4 5.69e-4 -3.91e-4 8.54e-4 -5.86e-4" stroke-width=".5"/>
    <path d="m2.8446 19.146c0.37668 0.1438 0.86024 0.20452 1.5803 0.2018 1.5311-0.0268 3.1405-1.9559 3.1563-3.3323-0.06098-1.7887 1.2645-2.611 2.8029-2.6022 1.589 0.04569 2.9326 0.39115 2.9576 3.2948-0.07603 2.8822 0.55482 4.8195 2.9339 4.9218 1.6176 0.0266 3.0255-0.79331 2.9949-2.6825v-2.5517c0.0074-1.8756 0.83542-2.9413 2.7654-2.9194 2.3356 0.08992 2.8893 0.99572 2.9039 2.9194v2.5517c0.0021 1.8413 1.0035 2.7327 3.0458 2.8 1.6898-0.08687 2.5642-0.90537 2.5638-2.78l-0.0078-2.6603c-0.06307-1.6386 1.1946-2.8946 2.9487-2.8946 1.5409 0.07335 3.1603 0.55127 3.0793 3.0043-0.05607 1.8958 2.8334 3.5123 4.71 2.224" stroke-width="3"/>
   </g>
  </g>
 </g>
</svg>
