<?xml version="1.0" encoding="UTF-8" standalone="no"?>
<!-- Created with Inkscape (http://www.inkscape.org/) -->

<svg
   version="1.1"
   id="svg3007"
   width="68"
   height="66.666664"
   viewBox="0 0 68 66.666664"
   xmlns="http://www.w3.org/2000/svg"
   xmlns:svg="http://www.w3.org/2000/svg">
  <defs
     id="defs3011" />
  <g
     id="layer1"
     style="display:inline">
    <path
       style="fill:#000000;stroke-width:1.33333"
       d="m 27.617024,65.839244 c -0.522696,-0.522697 -0.950357,-1.750357 -0.950357,-2.728136 0,-1.268828 2.127405,-1.777777 7.431098,-1.777777 6.357146,0 7.367063,0.337217 6.988008,2.333333 -0.330096,1.738293 -1.982794,2.434015 -6.480741,2.728136 -3.320708,0.21714 -6.465311,-0.03285 -6.988008,-0.555556 z M 15.857731,61.529712 C 12.493359,59.396091 8.4364072,55.818703 6.842282,53.579961 2.9326176,48.089343 0,39.411592 0,33.333332 0,26.908011 3.1455432,18.038626 7.4046713,12.454621 15.415107,1.9523995 32.324331,-2.7844476 44.798291,1.9794006 58.013451,7.0263161 66.655159,19.440439 66.624359,33.333332 c -0.01847,8.327657 -3.528432,17.307791 -9.036294,23.119034 -3.928985,4.145401 -10.745852,8.167622 -11.894969,7.018505 -0.399167,-0.399167 1.156592,-2.484135 3.45724,-4.633261 3.395063,-3.171464 4.182997,-4.954875 4.182997,-9.467796 0,-3.164704 0.861678,-6.421969 2,-7.560292 1.1,-1.1 2,-2.814285 2,-3.809524 0,-0.995238 -0.9,-2.709523 -2,-3.809523 -1.1,-1.1 -2,-3.754127 -2,-5.89806 C 53.333333,19.929106 43.175704,10.67081 34,10.67081 c -9.175704,0 -19.333333,9.258296 -19.333333,17.621605 0,2.143933 -0.9,4.79806 -2,5.89806 -2.541064,2.541064 -2.541064,5.077983 0,7.619047 1.138322,1.138323 2,4.395588 2,7.560292 0,4.494333 0.789497,6.297792 4.118209,9.407274 2.265016,2.115842 3.909339,4.473599 3.654052,5.23946 -0.256291,0.768871 -3.203604,-0.344829 -6.581197,-2.486836 z m 4.408936,-5.796381 c -0.88,-0.88 -1.6,-3.88 -1.6,-6.666666 v -5.066667 h 7.911437 c 7.562575,0 7.93004,0.155755 8.333333,3.532184 0.232043,1.942701 1.471896,4.189632 2.75523,4.99318 3.216525,2.013998 6.879261,-0.450156 7.421896,-4.99318 0.236725,-1.981896 1.260833,-3.532184 2.333333,-3.532184 1.324355,0 1.911437,1.556188 1.911437,5.066667 0,2.786666 -0.72,5.786666 -1.6,6.666666 -1.010012,1.010012 -6.074074,1.6 -13.733333,1.6 -7.659259,0 -12.723321,-0.589988 -13.733333,-1.6 z m 17.955556,-7.288889 c -0.48889,-0.488888 -0.88889,-2.588888 -0.88889,-4.666666 V 39.999998 H 26 c -9.185185,0 -11.333333,-0.379085 -11.333333,-2 0,-1.685823 3.037037,-1.999999 19.333333,-1.999999 16.296296,0 19.333333,0.314176 19.333333,1.999999 0,1.481482 -1.555556,2 -6,2 -5.968253,0 -6,0.02469 -6,4.666667 0,4.412277 -1.118469,5.770418 -3.11111,3.777777 z M 18.162165,28.333332 c 0.483802,-2.016666 1.073779,-3.895212 1.31106,-4.174545 0.237283,-0.279335 2.493554,0.470665 5.013938,1.666667 2.520382,1.196 6.80116,2.174545 9.512837,2.174545 2.711677,0 6.992455,-0.978545 9.512837,-2.174545 2.520384,-1.196002 4.776655,-1.946002 5.013938,-1.666667 0.237281,0.279333 0.827258,2.157879 1.31106,4.174545 l 0.879637,3.666667 H 34 17.282528 Z m 7.504502,-5.96066 c -1.65,-0.795764 -3,-1.939747 -3,-2.542185 0,-1.735649 7.524004,-5.163821 11.333333,-5.163821 3.798453,0 11.333333,3.426301 11.333333,5.153553 0,1.883417 -6.596558,4.183355 -11.729404,4.08954 -2.715494,-0.04963 -6.287262,-0.741321 -7.937262,-1.537087 z"
       id="path4186" />
  </g>
</svg>
