<svg xmlns="http://www.w3.org/2000/svg" width="200" height="200"><defs><style>.cls-3{fill:#d41443;fill-rule:evenodd}</style></defs><circle id="Эллипс_1" data-name="Эллипс 1" cx="100" cy="100" r="100" style="fill:#d41443"/><path id="Фигура_6" data-name="Фигура 6" d="M67.975 194.8v-10.823A26.428 26.428 0 0 1 60 182.5a23.941 23.941 0 0 1-13.1-10.3 22.463 22.463 0 0 1-2.924-12.222v12.578-40.878C37.6 128.164 32.237 121.8 32.1 114.2c-.2-11.193 11.3-18.794 11.875-18.323A.078.078 0 0 0 44 95.9c.316-.008.031-19.741-.025-23.823A65.159 65.159 0 0 1 62.2 48a63.3 63.3 0 0 1 40-14.6 62.52 62.52 0 0 1 40.1 14.8c9.053 7.71 12.853 15.935 17.8 23.9l-.025-.023v23.8a19.384 19.384 0 0 1 0 35.8v28.3A24.324 24.324 0 0 1 156.6 172.2a24.738 24.738 0 0 1-12.4 10.2 25.14 25.14 0 0 1-7.7 1.6v9.2a106.573 106.573 0 0 1-12.5 4v-13.223H79.9V198a67.762 67.762 0 0 1-11.925-3.2Z" style="fill-rule:evenodd;fill:#fff"/><path id="Фигура_4" data-name="Фигура 4" class="cls-3" d="M55.775 95.877h92.5v-16.1A10.655 10.655 0 0 0 145.9 73.7a9.894 9.894 0 0 0-1.725-1.623 9.922 9.922 0 0 0-7.7 0 62.487 62.487 0 0 1-68.5 0 10.661 10.661 0 0 0-8 0A10.274 10.274 0 0 0 58 74a10.842 10.842 0 0 0-2.225 5.777v16.1Z"/><path id="Фигура_5" data-name="Фигура 5" class="cls-3" d="M68 62.4a65.317 65.317 0 0 0 68.5 0 5.749 5.749 0 0 0-.025-6.523 55.321 55.321 0 0 0-68.5 0A5.432 5.432 0 0 0 68 62.4Z"/><path id="Фигура_1" data-name="Фигура 1" class="cls-3" d="M47.7 119.9h108.4a6.424 6.424 0 0 0 0-11.9H47.7a6.558 6.558 0 0 0 0 11.9Z"/><path id="Фигура_2" data-name="Фигура 2" class="cls-3" d="M112.4 119.6v24.3a9.3 9.3 0 0 0 15 0v-24.3h-15Z"/><path id="Фигура_3" data-name="Фигура 3" class="cls-3" d="M55.775 131.678h47.9v17.2a17.652 17.652 0 0 0 32.8 0v-17.2h11.8v28.3a12.035 12.035 0 0 1-11.8 11.8h-68.5a11.639 11.639 0 0 1-12.2-11.8v-28.3Z"/></svg>