<svg aria-hidden="true" style="position:absolute;width:0;height:0" xmlns="http://www.w3.org/2000/svg" overflow="hidden"><defs>
<symbol id="icon-burger" viewBox="0 0 32 32"><path  stroke="var(--color1, #d41443)" stroke-width="1.6" d="M0 6.4h32M0 16h32M0 25.6h32"/></symbol><symbol id="btn-menu" viewBox="0 0 20 14" fill="none">
<path d="M0 1H20"/>
<path d="M0 7H20"/>
<path d="M0 13H20"/>
</symbol><symbol id="icon-close" viewBox="0 0 32 32"><path stroke-width="2" d="m2.52 2 26.96 28M2 29.48 30 2.52"/></symbol><symbol id="icon-facebook" viewBox="0 0 16 32"><path d="M14.143 15.972h-4.034v14.865h-6.112v-14.865h-2.907v-5.224h2.907v-3.381c0-2.418 1.142-6.203 6.166-6.203l4.527 0.019v5.071h-3.285c-0.539 0-1.296 0.271-1.296 1.424v3.075h4.567l-0.534 5.219z"></path></symbol><symbol id="icon-github" viewBox="0 0 32 32"><path d="M16 0c-8.788 0-16 7.212-16 16 0 7.499 5.262 14.312 12.25 16v-5.293c-0.692 0.152-1.33 0.156-2.034-0.052-0.946-0.279-1.714-0.909-2.284-1.869-0.364-0.613-1.008-1.278-1.68-1.23l-0.165-1.868c1.453-0.124 2.711 0.886 3.457 2.14 0.332 0.558 0.713 0.884 1.203 1.029 0.473 0.14 0.982 0.072 1.574-0.137 0.149-1.186 0.692-1.63 1.102-2.255-4.167-0.622-5.828-2.833-6.488-4.579-0.874-2.317-0.405-5.212 1.14-7.041 0.030-0.036 0.084-0.129 0.063-0.194-0.708-2.139 0.155-3.909 0.187-4.097 0.817 0.242 0.95-0.243 3.551 1.337l0.449 0.27c0.188 0.112 0.129 0.048 0.317 0.034 1.086-0.295 2.23-0.458 3.358-0.472 1.136 0.015 2.273 0.178 3.404 0.484l0.145 0.015c-0.013-0.002 0.040-0.009 0.127-0.062 3.248-1.968 3.132-1.324 4.003-1.608 0.032 0.188 0.883 1.987 0.182 4.099-0.095 0.291 2.816 2.956 1.203 7.235-0.659 1.746-2.32 3.957-6.487 4.578 0.534 0.814 1.176 1.248 1.173 2.928v6.608c6.988-1.688 12.25-8.501 12.25-16 0-8.788-7.212-16-16-16z"></path></symbol><symbol id="icon-house" viewBox="0 0 32 32"><path  d="M31.618 15.643c.237-.258.382-.603.382-.983a1.45 1.45 0 0 0-.501-1.098l-.002-.002L17.86 1.629a1.69 1.69 0 0 0-1.093-.399c-.431 0-.824.16-1.124.425l.002-.002L1.964 14.197a1.443 1.443 0 0 0-.066 2.078l.345.357c.566.591 1.487.665 2.053.158l1.022-.916V29.28c0 .825.665 1.489 1.489 1.489h5.329c.822 0 1.489-.665 1.489-1.489v-9.378h6.806v9.378c-.012.822.576 1.489 1.398 1.489h5.652c.822 0 1.487-.665 1.487-1.489V16.062l.633.556c.347.305 1.078.059 1.63-.549l.389-.426z"/></symbol><symbol id="icon-logo" viewBox="0 0 32 32"><path d="M12.16.576C4.8 2.816.384 8.64.384 16c0 6.016 3.072 11.264 8.128 13.888 2.624 1.344 3.008.384.576-1.472C7.36 27.008 7.04 26.368 7.04 24c0-1.664-.384-3.008-.96-3.52-1.152-.96-1.28-3.456-.128-4.352.448-.384.896-1.664.96-2.816.32-4.224 4.864-8.192 9.408-8.192s9.088 3.968 9.408 8.192c.064 1.152.512 2.432.96 2.816 1.152.896 1.024 3.392-.128 4.352-.576.512-.96 1.856-.96 3.52 0 2.368-.32 3.008-2.048 4.416-2.688 2.112-1.92 2.88 1.088 1.024C28.864 26.816 32 21.12 32 16.064 32 5.952 21.504-2.24 12.16.576z"/><path d="M12.992 8c-1.152.512-2.112 1.152-2.112 1.536 0 .704 3.456 1.984 5.44 1.984s5.44-1.28 5.44-1.984c0-.768-3.968-2.496-5.568-2.496-.64.064-2.112.448-3.2.96zm-3.648 3.968c-.192.256-.384 1.088-.384 1.92 0 1.472.064 1.472 7.36 1.472s7.36 0 7.36-1.472c0-2.176-.576-2.432-2.624-1.408-2.304 1.216-7.168 1.216-9.472 0-1.024-.512-1.984-.704-2.24-.512zm-1.856 5.696c-1.024 1.088.704 1.536 5.696 1.536h5.376v2.24c0 1.216.32 2.24.64 2.24.384 0 .64-.96.64-2.176 0-2.112.128-2.24 2.56-2.432 1.408-.128 2.56-.512 2.56-.832 0-.704-16.768-1.28-17.472-.576z"/><path d="M8.96 23.296c0 3.52 1.216 4.224 7.36 4.224s7.36-.704 7.36-4.224c0-1.536-.32-2.176-.96-2.176-.576 0-.96.576-.96 1.536 0 3.584-4.864 3.904-5.568.384-.32-1.856-.512-1.92-3.776-1.92H8.96v2.176zm3.968 7.232c.384 2.048 6.912 1.856 6.912-.128 0-.704-.832-.96-3.584-.96-3.008 0-3.52.192-3.328 1.088z"/></symbol>
<symbol id="icon-logo-hq" version="1.1" viewBox="0 0 67 67" xmlns="http://www.w3.org/2000/svg">
 <g>
  <ellipse cx="33.5" cy="33.5" rx="33.5" ry="33.5" stroke-width="0"/>
 </g>
 <g>
  <circle cx="33.991" cy="30.217" r="0" fill="none" stroke-width=".99371"/>
  <g fill="none" stroke="#fff" stroke-width="4">
   <g>
    <path d="m16.557 34h35.071c2.216 0 3.9291 1.784 3.9291 4s-1.7131 4-3.9291 4h-8.1638v5.622c0 5.0953-7.3164 5.0161-7.3164 0v-5.622h-19.591c-2.216 0-4-1.784-4-4s1.784-4 4-4z" stroke-linejoin="round"/>
    <path d="m19.156 20.336c8.8397 8.3774 20.096 8.3732 29.844-0.33576v0" stroke-linecap="round"/>
    <path d="m51.726 29.389 8.26e-4 4.6156h-35.108v-4.6154" stroke-linejoin="round"/>
   </g>
   <path transform="scale(1,-1)" d="m51.726-29.389a17.554 17.48 0 0 1-8.7768 15.138 17.554 17.48 0 0 1-17.554-1e-6 17.554 17.48 0 0 1-8.7768-15.138" stroke-linejoin="round"/>
   <path d="m51.623 42.001v8.9992c0 4.432-3.568 8-8 8h-19c-4.432 0-8-3.568-8-8v-9" stroke-linejoin="round"/>
  </g>
  <path d="m22.771 59v6.1621a33.502 33.5 0 0 0 4 1.0703v-7.2324z" fill="#fff" stroke-width="0"/>
  <path d="m41.424 59v6.9727a33.502 33.5 0 0 0 4-1.2559v-5.7168z" fill="#fff" stroke-width="0"/>
 </g>
</symbol>
<symbol id="icon-telegram" viewBox="0 0 44 32"><path d="M17.343 21.048l-0.675 8.86c0.966 0 1.384-0.387 1.885-0.852l4.527-4.038 9.381 6.412c1.72 0.895 2.933 0.424 3.397-1.477l6.157-26.929 0.002-0.002c0.546-2.374-0.92-3.302-2.596-2.72l-36.194 12.933c-2.47 0.895-2.433 2.18-0.42 2.762l9.253 2.686 21.494-12.552c1.011-0.625 1.931-0.279 1.175 0.346l-17.386 14.57z"></path></symbol><symbol id="icon-vector" viewBox="0 0 32 32"><path stroke="var(--color1, #d41443)" stroke-linejoin="round" stroke-linecap="round" stroke-width="6.4" d="M9.6 3.2 22.4 16 9.6 28.8"/></symbol><symbol id="icon-arrow-right" viewBox="0 0 32 32"><path d="m19.414 27.414 10-10a2 2 0 0 0 0-2.828l-10-10a2 2 0 1 0-2.828 2.828L23.172 14H4a2 2 0 1 0 0 4h19.172l-6.586 6.586c-.39.39-.586.902-.586 1.414s.195 1.024.586 1.414a2 2 0 0 0 2.828 0z"/></symbol><symbol id="icon-vector-1" viewBox="0 0 19 32"><path fill="none" stroke="#d41443" style="stroke:var(--color1, #d41443)" stroke-linejoin="round" stroke-linecap="round" stroke-width="6.4" d="M3.2 3.2 16 16 3.2 28.8"/></symbol><symbol id="icon-vector-2" viewBox="0 0 19 32"><path fill="none" stroke="#fff" style="stroke: var(--color1, #fff)" stroke-linejoin="round" stroke-linecap="round" stroke-miterlimit="4" stroke-width="6.4" d="M3.2 3.2l11.553 12.8-11.553 12.8"></path></symbol>
<symbol id="angle-right" viewBox="0 0 8 10" fill="none">
<path d="M1.10693 1L6.3648 5L1.10693 9" stroke-width="2" stroke-linecap="round" stroke-linejoin="round"/>
</symbol>
<symbol id="icon-how-1" fill="none" version="1.1" viewBox="0 0 33 50">
 <g>
  <g stroke="#ffa5ba" stroke-width="3">
   <path d="m1.5 22h30l-5 26.5h-20z" stroke-linejoin="round"/>
   <g stroke-linecap="round">
    <path d="m31.423 22.825a15.5 17 0 0 1-14.959 12.655 15.5 17 0 0 1-14.998-12.6"/>
    <path d="m5.9437 6.1698c-0.7316-1.2522-1.2402-2.6199-1.4921-4.0481"/>
    <path d="m14 11.982c-1.6932-0.356-3.2967-1.0667-4.6954-2.0851"/>
    <path d="m23.626 9.9608c-1.3851 0.98844-2.9555 1.6824-4.6215 2.0282"/>
    <path d="m27.046 6.2527a12.25 12.25 0 0 1-0.01525 0.025587"/>
    <path d="m28.579 2.1217c-0.25715 1.4584-0.79184 2.8836-1.5484 4.1566"/>
    <path d="m14 11.982v3.0176a2.5 2.5 0 0 0 1.25 2.166 2.5 2.5 0 0 0 2.5 0 2.5 2.5 0 0 0 1.25-2.166v-3.0117"/>
    <path d="m5.9437 6.1698-1.4933 1.6065a2.5 2.5 0 0 0-0.55916 2.4375 2.5 2.5 0 0 0 1.8311 1.7021 2.5 2.5 0 0 0 2.3902-0.73542l1.1975-1.2883"/>
    <path d="m23.626 9.9608 1.2026 1.309c0.60423 0.65822 1.5138 0.94392 2.3859 0.74942 0.87174-0.19443 1.5735-0.83916 1.841-1.6913 0.26759-0.85249 0.05987-1.783-0.54486-2.4407l-1.4797-1.6089"/>
    <path d="m4.4516 2.1217 0.54837-0.62169h23l0.57942 0.62169" stroke-linejoin="round"/>
   </g>
  </g>
 </g>
</symbol>
<symbol id="icon-how-2" fill="none" version="1.1" viewBox="0 0 50 50" >
 <g>
  <g stroke="#ffa5ba" stroke-width="3">
   <path d="m32.253 44.736-0.72504 3.7636h-23.778l-6.25-31v0h36l-3.2491 16.865" fill="none" stroke-linecap="round" stroke-linejoin="round"/>
   <path d="m37.5 17.5a18 15.5 0 0 1-9 13.423 18 15.5 0 0 1-18 0 18 15.5 0 0 1-9-13.423" stroke-linecap="round" stroke-linejoin="round"/>
   <g fill="none">
    <path d="m39.598 36.993c3.1103-3.279 5.0835-2.5776 6.4233-2.014 5.9939 3.675 0.06059 14.055-6.563 12.491-6.0534 2.0564-13.007-7.8568-6.0727-12.792 1.7788-0.99404 4.3227-0.0071 6.2124 2.3146z" stroke-linejoin="round"/>
    <g stroke-linecap="round">
     <path d="m41.987 28.302c-2.4868 3.4242-2.4009 6.0492-2.3884 8.6906"/>
     <path d="m3.2848 17.511c-1.1369-2.7409-0.94744-7.4235 6.5559-7.2703 0.77064-1.9813 1.8082-4.8304 5.6874-4.7251 5.4759 0.25617 6.5202 8.7263 5.3393 11.986" stroke-linejoin="round"/>
     <path d="m7.4165 1.4571c-0.55121 3.7067 0.047381 6.8469 2.4242 8.7832"/>
     <path d="m20.227 9.1516c1.7918-0.72426 4.4047-0.48519 6.2424 1.4549 6.9369-5.9299 10.79 0.75488 8.3332 6.8932" stroke-linejoin="round"/>
     <path d="m28.945 1.4874c-2.0286 2.8096-2.6906 5.8805-2.476 9.1191"/>
    </g>
   </g>
  </g>
 </g>
</symbol>
<symbol id="icon-how-3" fill="none" version="1.1" viewBox="0 0 44 50">
 <g>
  <g stroke="#ffa5ba">
   <path d="m25.25 35v13.5h-6v-13.5" stroke-linecap="round" stroke-linejoin="round" stroke-width="3"/>
   <g>
    <path d="m20 6c0.61546 0.62255 3.2398 0.79223 4 0 1.9255-2.1724 2.9823-4.3438 9.0077-4.4563 5.913 0.14815 9.5817 5.6491 9.5156 10.953-0.064217 8.8255-6.7469 14.645-17.273 22.504-2.0262 0.71878-4.0252 0.6905-6 0-12.142-8.0912-17.533-13.553-17.798-22.531 0.15208-4.7534 3.6773-10.801 9.9996-10.944 5.1888 0.086834 6.766 2.3075 8.5485 4.4753z" stroke-width="3"/>
    <path d="m41.28 18.641c2.84e-4 -1.95e-4 5.69e-4 -3.91e-4 8.54e-4 -5.86e-4" stroke-width=".5"/>
    <path d="m2.8446 19.146c0.37668 0.1438 0.86024 0.20452 1.5803 0.2018 1.5311-0.0268 3.1405-1.9559 3.1563-3.3323-0.06098-1.7887 1.2645-2.611 2.8029-2.6022 1.589 0.04569 2.9326 0.39115 2.9576 3.2948-0.07603 2.8822 0.55482 4.8195 2.9339 4.9218 1.6176 0.0266 3.0255-0.79331 2.9949-2.6825v-2.5517c0.0074-1.8756 0.83542-2.9413 2.7654-2.9194 2.3356 0.08992 2.8893 0.99572 2.9039 2.9194v2.5517c0.0021 1.8413 1.0035 2.7327 3.0458 2.8 1.6898-0.08687 2.5642-0.90537 2.5638-2.78l-0.0078-2.6603c-0.06307-1.6386 1.1946-2.8946 2.9487-2.8946 1.5409 0.07335 3.1603 0.55127 3.0793 3.0043-0.05607 1.8958 2.8334 3.5123 4.71 2.224" stroke-width="3"/>
   </g>
  </g>
 </g>
</symbol>
</defs></svg>