<svg aria-hidden="true" style="position:absolute;width:0;height:0" xmlns="http://www.w3.org/2000/svg" overflow="hidden">
  <defs>
    <symbol id="icon-burger" viewBox="0 0 32 32">
      <path stroke="var(--color1, #d41443)" stroke-width="1.6" d="M0 6.4h32M0 16h32M0 25.6h32"/>
    </symbol>
    <symbol id="btn-menu" viewBox="0 0 20 14" fill="none">
      <path d="M0 1h20M0 7h20M0 13h20"/>
    </symbol>
    <symbol id="icon-close" viewBox="0 0 32 32">
      <path stroke-width="2" d="m2.52 2 26.96 28M2 29.48 30 2.52"/>
    </symbol>
    <symbol id="icon-facebook" viewBox="0 0 16 32">
      <path d="M14.143 15.972h-4.034v14.865H3.997V15.972H1.09v-5.224h2.907V7.367c0-2.418 1.142-6.203 6.166-6.203l4.527.019v5.071h-3.285c-.539 0-1.296.271-1.296 1.424v3.075h4.567l-.534 5.219z"/>
    </symbol>
    <symbol id="icon-github" viewBox="0 0 32 32">
      <path d="M16 0C7.212 0 0 7.212 0 16c0 7.499 5.262 14.312 12.25 16v-5.293c-.692.152-1.33.156-2.034-.052-.946-.279-1.714-.909-2.284-1.869-.364-.613-1.008-1.278-1.68-1.23l-.165-1.868c1.453-.124 2.711.886 3.457 2.14.332.558.713.884 1.203 1.029.473.14.982.072 1.574-.137.149-1.186.692-1.63 1.102-2.255-4.167-.622-5.828-2.833-6.488-4.579-.874-2.317-.405-5.212 1.14-7.041.03-.036.084-.129.063-.194-.708-2.139.155-3.909.187-4.097.817.242.95-.243 3.551 1.337l.449.27c.188.112.129.048.317.034A13.544 13.544 0 0 1 16 7.723c1.136.015 2.273.178 3.404.484l.145.015c-.013-.002.04-.009.127-.062 3.248-1.968 3.132-1.324 4.003-1.608.032.188.883 1.987.182 4.099-.095.291 2.816 2.956 1.203 7.235-.659 1.746-2.32 3.957-6.487 4.578.534.814 1.176 1.248 1.173 2.928V32C26.738 30.312 32 23.499 32 16c0-8.788-7.212-16-16-16z"/>
    </symbol>
    <symbol id="icon-house" viewBox="0 0 32 32">
      <path d="M31.618 15.643c.237-.258.382-.603.382-.983a1.45 1.45 0 0 0-.501-1.098l-.002-.002L17.86 1.629a1.69 1.69 0 0 0-1.093-.399c-.431 0-.824.16-1.124.425l.002-.002L1.964 14.197a1.443 1.443 0 0 0-.066 2.078l.345.357c.566.591 1.487.665 2.053.158l1.022-.916V29.28c0 .825.665 1.489 1.489 1.489h5.329c.822 0 1.489-.665 1.489-1.489v-9.378h6.806v9.378c-.012.822.576 1.489 1.398 1.489h5.652c.822 0 1.487-.665 1.487-1.489V16.062l.633.556c.347.305 1.078.059 1.63-.549l.389-.426z"/>
    </symbol>
    <symbol id="icon-logo" viewBox="0 0 32 32">
      <path d="M12.16.576C4.8 2.816.384 8.64.384 16c0 6.016 3.072 11.264 8.128 13.888 2.624 1.344 3.008.384.576-1.472C7.36 27.008 7.04 26.368 7.04 24c0-1.664-.384-3.008-.96-3.52-1.152-.96-1.28-3.456-.128-4.352.448-.384.896-1.664.96-2.816.32-4.224 4.864-8.192 9.408-8.192s9.088 3.968 9.408 8.192c.064 1.152.512 2.432.96 2.816 1.152.896 1.024 3.392-.128 4.352-.576.512-.96 1.856-.96 3.52 0 2.368-.32 3.008-2.048 4.416-2.688 2.112-1.92 2.88 1.088 1.024C28.864 26.816 32 21.12 32 16.064 32 5.952 21.504-2.24 12.16.576z"/>
      <path d="M12.992 8c-1.152.512-2.112 1.152-2.112 1.536 0 .704 3.456 1.984 5.44 1.984s5.44-1.28 5.44-1.984c0-.768-3.968-2.496-5.568-2.496-.64.064-2.112.448-3.2.96zm-3.648 3.968c-.192.256-.384 1.088-.384 1.92 0 1.472.064 1.472 7.36 1.472s7.36 0 7.36-1.472c0-2.176-.576-2.432-2.624-1.408-2.304 1.216-7.168 1.216-9.472 0-1.024-.512-1.984-.704-2.24-.512zm-1.856 5.696c-1.024 1.088.704 1.536 5.696 1.536h5.376v2.24c0 1.216.32 2.24.64 2.24.384 0 .64-.96.64-2.176 0-2.112.128-2.24 2.56-2.432 1.408-.128 2.56-.512 2.56-.832 0-.704-16.768-1.28-17.472-.576z"/>
      <path d="M8.96 23.296c0 3.52 1.216 4.224 7.36 4.224s7.36-.704 7.36-4.224c0-1.536-.32-2.176-.96-2.176-.576 0-.96.576-.96 1.536 0 3.584-4.864 3.904-5.568.384-.32-1.856-.512-1.92-3.776-1.92H8.96v2.176zm3.968 7.232c.384 2.048 6.912 1.856 6.912-.128 0-.704-.832-.96-3.584-.96-3.008 0-3.52.192-3.328 1.088z"/>
    </symbol>
    <symbol id="icon-logo-hq" viewBox="0 0 67 67" xmlns="http://www.w3.org/2000/svg">
      <circle cx="33.5" cy="33.5" stroke-width="0" r="33.5"/>
      <g fill="none" stroke="#fff" stroke-width="4">
        <path d="M16.557 34h35.071c2.216 0 3.93 1.784 3.93 4s-1.714 4-3.93 4h-8.164v5.622c0 5.095-7.316 5.016-7.316 0V42H16.557c-2.216 0-4-1.784-4-4s1.784-4 4-4z" stroke-linejoin="round"/>
        <path d="M19.156 20.336C27.996 28.713 39.252 28.709 49 20v0" stroke-linecap="round"/>
        <path d="M51.726 29.389v4.616H16.62v-4.616" stroke-linejoin="round"/>
        <path d="M51.726 29.389a17.554 17.48 0 0 0-8.777-15.138 17.554 17.48 0 0 0-17.554 0 17.554 17.48 0 0 0-8.777 15.138M51.623 42.001v9c0 4.431-3.568 8-8 8h-19c-4.432 0-8-3.569-8-8v-9" stroke-linejoin="round"/>
      </g>
      <path d="M22.771 59v6.162a33.502 33.5 0 0 0 4 1.07V59zM41.424 59v6.973a33.502 33.5 0 0 0 4-1.256V59z" fill="#fff" stroke-width="0"/>
    </symbol>
    <symbol id="icon-telegram" viewBox="0 0 44 32">
      <path d="m17.343 21.048-.675 8.86c.966 0 1.384-.387 1.885-.852l4.527-4.038 9.381 6.412c1.72.895 2.933.424 3.397-1.477l6.157-26.929.002-.002c.546-2.374-.92-3.302-2.596-2.72L3.227 13.235c-2.47.895-2.433 2.18-.42 2.762l9.253 2.686L33.554 6.131c1.011-.625 1.931-.279 1.175.346l-17.386 14.57z"/>
    </symbol>
    <symbol id="icon-vector" viewBox="0 0 32 32">
      <path stroke="var(--color1, #d41443)" stroke-linejoin="round" stroke-linecap="round" stroke-width="6.4" d="M9.6 3.2 22.4 16 9.6 28.8"/>
    </symbol>
    <symbol id="icon-arrow-right" viewBox="0 0 32 32">
      <path d="m19.414 27.414 10-10a2 2 0 0 0 0-2.828l-10-10a2 2 0 1 0-2.828 2.828L23.172 14H4a2 2 0 1 0 0 4h19.172l-6.586 6.586c-.39.39-.586.902-.586 1.414s.195 1.024.586 1.414a2 2 0 0 0 2.828 0z"/>
    </symbol>
    <symbol id="icon-vector-1" viewBox="0 0 19 32">
      <path fill="none" stroke="var(--color1, #d41443)" stroke-linejoin="round" stroke-linecap="round" stroke-width="6.4" d="M3.2 3.2 16 16 3.2 28.8"/>
    </symbol>
    <symbol id="icon-vector-2" viewBox="0 0 19 32">
      <path fill="none" stroke="var(--color1, #fff)" stroke-linejoin="round" stroke-linecap="round" stroke-width="6.4" d="M3.2 3.2 14.753 16 3.2 28.8"/>
    </symbol>
    <symbol id="angle-right" viewBox="0 0 8 10" fill="none">
      <path d="m1.107 1 5.258 4-5.258 4" stroke-width="2" stroke-linecap="round" stroke-linejoin="round"/>
    </symbol>
    <symbol id="icon-how-1" fill="none" viewBox="0 0 33 50">
      <g stroke="#ffa5ba" stroke-width="3">
        <path d="M1.5 22h30l-5 26.5h-20z" stroke-linejoin="round"/>
        <g stroke-linecap="round">
          <path d="M31.423 22.825A15.5 17 0 0 1 16.464 35.48a15.5 17 0 0 1-14.998-12.6M5.944 6.17a12.238 12.238 0 0 1-1.492-4.048M14 11.982a12.273 12.273 0 0 1-4.695-2.085M23.626 9.96a12.238 12.238 0 0 1-4.622 2.029M27.046 6.253a12.25 12.25 0 0 1-.015.025M28.579 2.122a12.411 12.411 0 0 1-1.548 4.156M14 11.982V15a2.5 2.5 0 0 0 1.25 2.166 2.5 2.5 0 0 0 2.5 0A2.5 2.5 0 0 0 19 15v-3.012"/>
          <path d="M5.944 6.17 4.45 7.776a2.5 2.5 0 0 0-.559 2.438 2.5 2.5 0 0 0 1.831 1.702 2.5 2.5 0 0 0 2.39-.736L9.31 9.892M23.626 9.96l1.203 1.31a2.5 2.5 0 1 0 3.682-3.383l-1.48-1.609"/>
          <path d="M4.452 2.122 5 1.5h23l.58.622" stroke-linejoin="round"/>
        </g>
      </g>
    </symbol>
    <symbol id="icon-how-2" fill="none" viewBox="0 0 50 50">
      <g stroke="#ffa5ba" stroke-width="3">
        <path d="m32.253 44.736-.725 3.764H7.75l-6.25-31v0h36l-3.25 16.865" stroke-linecap="round" stroke-linejoin="round"/>
        <path d="M37.5 17.5a18 15.5 0 0 1-9 13.423 18 15.5 0 0 1-18 0 18 15.5 0 0 1-9-13.423" stroke-linecap="round" stroke-linejoin="round"/>
        <path d="M39.598 36.993c3.11-3.279 5.083-2.578 6.423-2.014 5.994 3.675.06 14.055-6.563 12.491-6.053 2.056-13.007-7.857-6.072-12.792 1.778-.994 4.322-.007 6.212 2.315z" stroke-linejoin="round"/>
        <g stroke-linecap="round">
          <path d="M41.987 28.302c-2.487 3.424-2.4 6.05-2.388 8.69"/>
          <path d="M3.285 17.511c-1.137-2.74-.948-7.423 6.556-7.27.77-1.982 1.808-4.83 5.687-4.725 5.476.256 6.52 8.726 5.34 11.986" stroke-linejoin="round"/>
          <path d="M7.417 1.457c-.552 3.707.047 6.847 2.424 8.783"/>
          <path d="M20.227 9.152c1.792-.725 4.405-.486 6.242 1.455 6.937-5.93 10.79.754 8.334 6.893" stroke-linejoin="round"/>
          <path d="M28.945 1.487c-2.029 2.81-2.69 5.88-2.476 9.12"/>
        </g>
      </g>
    </symbol>
    <symbol id="icon-how-3" fill="none" viewBox="0 0 44 50">
      <g stroke="#ffa5ba">
        <path d="M25.25 35v13.5h-6V35" stroke-linecap="round" stroke-linejoin="round" stroke-width="3"/>
        <path d="M20 6c.615.623 3.24.792 4 0 1.925-2.172 2.982-4.344 9.008-4.456 5.913.148 9.581 5.649 9.515 10.953C42.46 21.322 35.776 27.142 25.25 35c-2.026.718-4.025.69-6 0C7.108 26.91 1.717 21.448 1.452 12.47c.152-4.754 3.678-10.801 10-10.944C16.64 1.613 18.218 3.833 20 6z" stroke-width="3"/>
        <path d="M41.28 18.641" stroke-width=".5"/>
        <path d="M2.845 19.146c.376.144.86.205 1.58.202 1.531-.027 3.14-1.956 3.156-3.332-.06-1.79 1.265-2.611 2.803-2.603 1.59.046 2.933.391 2.958 3.295-.076 2.882.555 4.82 2.934 4.922 1.617.027 3.025-.793 2.995-2.683v-2.551c.007-1.876.835-2.942 2.765-2.92 2.336.09 2.89.996 2.904 2.92v2.551c.002 1.842 1.003 2.733 3.046 2.8 1.69-.086 2.564-.905 2.563-2.78l-.007-2.66c-.063-1.639 1.194-2.895 2.948-2.895 1.541.074 3.16.552 3.08 3.005-.056 1.896 2.833 3.512 4.71 2.224" stroke-width="3"/>
      </g>
    </symbol>
  </defs>
</svg>
